<?xml version="1.0" encoding="UTF-8" standalone="no"?>
<!-- Created by diasvg.py -->
<svg width="11.150cm" height="17.216cm" viewBox="2.508 -1.114 13.658 16.102"
 xmlns="http://www.w3.org/2000/svg"
 xmlns:xlink="http://www.w3.org/1999/xlink">
<rect x="3.528" y="10.113" width="4.059" height="1.194" fill="#FFFFFF" stroke="none" stroke-width="0"/>
<rect x="3.528" y="10.113" width="4.059" height="1.194" fill="none" stroke="#000000" stroke-width="0.077" />
<text x="5.558" y="10.898"  fill="#000000" text-anchor="middle" font-size="0.68" font-family="monospace" font-style="normal" font-weight="700">
y = y * x</text>
<line x1="5.558" y1="11.307" x2="5.555" y2="12.655" stroke="#000000" stroke-width="0.077" />
<polygon fill="#000000" stroke="none" stroke-width="0.077" points="5.554,13.030 5.305,12.529 5.555,12.655 5.805,12.530 "/>
<polygon fill="none" stroke="#000000" stroke-width="0.077"  points="5.554,13.030 5.305,12.529 5.555,12.655 5.805,12.530 "/>
<polygon fill="#FFFFFF" stroke="none" stroke-width="0.077" points="9.073,5.549 11.185,7.583 9.073,9.617 6.961,7.583 "/>
<polygon fill="none" stroke="#000000" stroke-width="0.077"  points="9.073,5.549 11.185,7.583 9.073,9.617 6.961,7.583 "/>
<text x="9.073" y="7.749"  fill="#000000" text-anchor="middle" font-size="0.68" font-family="monospace" font-style="normal" font-weight="700">
x &gt; 0</text>
<polyline fill="none" stroke="#000000" stroke-width="0.077"  points="6.961,7.583 6.961,7.603 5.558,7.603 5.558,9.652 "/>
<polygon fill="#000000" stroke="none" stroke-width="0.077" points="5.558,10.027 5.308,9.527 5.558,9.652 5.808,9.527 "/>
<polygon fill="none" stroke="#000000" stroke-width="0.077"  points="5.558,10.027 5.308,9.527 5.558,9.652 5.808,9.527 "/>
<polyline fill="none" stroke="#000000" stroke-width="0.077"  points="11.185,7.583 11.185,7.579 12.771,7.579 12.771,9.569 "/>
<polygon fill="#000000" stroke="none" stroke-width="0.077" points="12.771,9.944 12.521,9.444 12.771,9.569 13.021,9.444 "/>
<polygon fill="none" stroke="#000000" stroke-width="0.077"  points="12.771,9.944 12.521,9.444 12.771,9.569 13.021,9.444 "/>
<text x="5.658" y="7.313"  fill="#0000FF" text-anchor="start" font-size="0.68" font-family="sans" font-style="normal" font-weight="400">
True</text>
<text x="11.260" y="7.189"  fill="#0000FF" text-anchor="start" font-size="0.68" font-family="sans" font-style="normal" font-weight="400">
False</text>
<line x1="9.073" y1="4.162" x2="9.073" y2="5.088" stroke="#000000" stroke-width="0.077" />
<polygon fill="#000000" stroke="none" stroke-width="0.077" points="9.073,5.463 8.823,4.963 9.073,5.088 9.323,4.963 "/>
<polygon fill="none" stroke="#000000" stroke-width="0.077"  points="9.073,5.463 8.823,4.963 9.073,5.088 9.323,4.963 "/>
<rect x="3.480" y="13.116" width="4.149" height="1.194" fill="#FFFFFF" stroke="none" stroke-width="0"/>
<rect x="3.480" y="13.116" width="4.149" height="1.194" fill="none" stroke="#000000" stroke-width="0.077" />
<text x="5.554" y="13.900"  fill="#000000" text-anchor="middle" font-size="0.68" font-family="monospace" font-style="normal" font-weight="700">
x = x - 1</text>
<polyline fill="none" stroke="#000000" stroke-width="0.120"  points="5.492,14.363 5.538,14.363 5.538,15.199 2.568,15.199 2.568,3.514 8.596,3.514 "/>
<polygon fill="#000000" stroke="none" stroke-width="0.120" points="8.971,3.514 8.471,3.764 8.596,3.514 8.471,3.264 "/>
<polygon fill="none" stroke="#000000" stroke-width="0.120"  points="8.971,3.514 8.471,3.764 8.596,3.514 8.471,3.264 "/>
<line x1="9.090" y1="1.869" x2="9.069" y2="4.256" stroke="#000000" stroke-width="0.077" />
<path stroke="none" fill="#000000" stroke-width="0.077" d="M 9.069,4.256 C 9.019,4.255 8.970,4.205 8.970,4.155 C 8.971,4.105 9.021,4.055 9.071,4.056 C 9.121,4.056 9.171,4.106 9.170,4.156 C 9.170,4.206 9.119,4.256 9.069,4.256 "/>
<path stroke="#000000" fill="none" stroke-width="0.077"  d="M 9.069,4.256 C 9.019,4.255 8.970,4.205 8.970,4.155 C 8.971,4.105 9.021,4.055 9.071,4.056 C 9.121,4.056 9.171,4.106 9.170,4.156 C 9.170,4.206 9.119,4.256 9.069,4.256 "/>
<line x1="9.090" y1="1.869" x2="9.071" y2="2.900" stroke="#000000" stroke-width="0.077" />
<path stroke="none" fill="#000000" stroke-width="0.077" d="M 9.071,2.900 C 9.021,2.899 8.972,2.848 8.973,2.798 C 8.974,2.748 9.025,2.699 9.075,2.700 C 9.125,2.701 9.174,2.752 9.173,2.802 C 9.172,2.852 9.121,2.901 9.071,2.900 "/>
<path stroke="#000000" fill="none" stroke-width="0.077"  d="M 9.071,2.900 C 9.021,2.899 8.972,2.848 8.973,2.798 C 8.974,2.748 9.025,2.699 9.075,2.700 C 9.125,2.701 9.174,2.752 9.173,2.802 C 9.172,2.852 9.121,2.901 9.071,2.900 "/>
<line x1="5.560" y1="7.666" x2="5.555" y2="8.706" stroke="#000000" stroke-width="0.077" />
<path stroke="none" fill="#000000" stroke-width="0.077" d="M 5.555,8.706 C 5.505,8.706 5.455,8.656 5.456,8.606 C 5.456,8.556 5.506,8.506 5.556,8.506 C 5.606,8.507 5.656,8.557 5.656,8.607 C 5.655,8.657 5.605,8.707 5.555,8.706 "/>
<path stroke="#000000" fill="none" stroke-width="0.077"  d="M 5.555,8.706 C 5.505,8.706 5.455,8.656 5.456,8.606 C 5.456,8.556 5.506,8.506 5.556,8.506 C 5.606,8.507 5.656,8.557 5.656,8.607 C 5.655,8.657 5.605,8.707 5.555,8.706 "/>
<line x1="5.560" y1="11.468" x2="5.560" y2="12.062" stroke="#000000" stroke-width="0.077" />
<path stroke="none" fill="#000000" stroke-width="0.077" d="M 5.560,12.062 C 5.510,12.062 5.460,12.012 5.460,11.962 C 5.460,11.912 5.510,11.862 5.560,11.862 C 5.610,11.862 5.660,11.912 5.660,11.962 C 5.660,12.012 5.610,12.062 5.560,12.062 "/>
<path stroke="#000000" fill="none" stroke-width="0.077"  d="M 5.560,12.062 C 5.510,12.062 5.460,12.012 5.460,11.962 C 5.460,11.912 5.510,11.862 5.560,11.862 C 5.610,11.862 5.660,11.912 5.660,11.962 C 5.660,12.012 5.610,12.062 5.560,12.062 "/>
<line x1="4.764" y1="15.187" x2="3.914" y2="15.181" stroke="#000000" stroke-width="0.077" />
<path stroke="none" fill="#000000" stroke-width="0.077" d="M 3.914,15.181 C 3.915,15.132 3.965,15.082 4.015,15.082 C 4.065,15.082 4.115,15.133 4.114,15.183 C 4.114,15.233 4.064,15.282 4.014,15.282 C 3.964,15.282 3.914,15.231 3.914,15.181 "/>
<path stroke="#000000" fill="none" stroke-width="0.077"  d="M 3.914,15.181 C 3.915,15.132 3.965,15.082 4.015,15.082 C 4.065,15.082 4.115,15.133 4.114,15.183 C 4.114,15.233 4.064,15.282 4.014,15.282 C 3.964,15.282 3.914,15.231 3.914,15.181 "/>
<rect x="7.092" y="0.676" width="3.995" height="1.194" fill="#FFFFFF" stroke="none" stroke-width="0"/>
<rect x="7.092" y="0.676" width="3.995" height="1.194" fill="none" stroke="#000000" stroke-width="0.077" />
<text x="9.090" y="1.460"  fill="#000000" text-anchor="middle" font-size="0.68" font-family="monospace" font-style="normal" font-weight="700">
y = 1</text>
<line x1="9.079" y1="-1.076" x2="9.077" y2="-0.045" stroke="#000000" stroke-width="0.077" />
<path stroke="none" fill="#000000" stroke-width="0.077" d="M 9.077,-0.045 C 9.027,-0.045 8.977,-0.096 8.977,-0.146 C 8.977,-0.196 9.027,-0.245 9.077,-0.245 C 9.127,-0.245 9.177,-0.195 9.177,-0.145 C 9.177,-0.095 9.127,-0.045 9.077,-0.045 "/>
<path stroke="#000000" fill="none" stroke-width="0.077"  d="M 9.077,-0.045 C 9.027,-0.045 8.977,-0.096 8.977,-0.146 C 8.977,-0.196 9.027,-0.245 9.077,-0.245 C 9.127,-0.245 9.177,-0.195 9.177,-0.145 C 9.177,-0.095 9.127,-0.045 9.077,-0.045 "/>
<line x1="9.079" y1="-0.361" x2="9.090" y2="0.676" stroke="#000000" stroke-width="0.077" />
<line x1="12.773" y1="7.913" x2="12.773" y2="8.615" stroke="#000000" stroke-width="0.077" />
<path stroke="none" fill="#000000" stroke-width="0.077" d="M 12.773,8.615 C 12.723,8.615 12.673,8.565 12.673,8.515 C 12.673,8.465 12.723,8.415 12.773,8.415 C 12.823,8.415 12.873,8.465 12.873,8.515 C 12.873,8.565 12.823,8.615 12.773,8.615 "/>
<path stroke="#000000" fill="none" stroke-width="0.077"  d="M 12.773,8.615 C 12.723,8.615 12.673,8.565 12.673,8.515 C 12.673,8.465 12.723,8.415 12.773,8.415 C 12.823,8.415 12.873,8.465 12.873,8.515 C 12.873,8.565 12.823,8.615 12.773,8.615 "/>
<text x="5.003" y="8.739"  fill="#000000" text-anchor="middle" font-size="0.68" font-family="monospace" font-style="normal" font-weight="700">
3</text>
<text x="13.494" y="8.694"  fill="#000000" text-anchor="middle" font-size="0.68" font-family="monospace" font-style="normal" font-weight="700">
6</text>
<text x="9.641" y="0.016"  fill="#000000" text-anchor="middle" font-size="0.68" font-family="monospace" font-style="normal" font-weight="700">
0</text>
<text x="9.605" y="3.013"  fill="#000000" text-anchor="middle" font-size="0.68" font-family="monospace" font-style="normal" font-weight="700">
1</text>
<text x="9.623" y="4.333"  fill="#000000" text-anchor="middle" font-size="0.68" font-family="monospace" font-style="normal" font-weight="700">
2</text>
<text x="4.111" y="15.972"  fill="#000000" text-anchor="middle" font-size="0.68" font-family="monospace" font-style="normal" font-weight="700">
5</text>
<text x="4.824" y="12.105"  fill="#000000" text-anchor="middle" font-size="0.68" font-family="monospace" font-style="normal" font-weight="700">
4</text>
</svg>